<?xml version="1.0" encoding="UTF-8"?>
<svg version="1.1" xmlns="http://www.w3.org/2000/svg" width="1024" height="1024">
<path d="M0 0 C337.92 0 675.84 0 1024 0 C1024 337.92 1024 675.84 1024 1024 C686.08 1024 348.16 1024 0 1024 C0 686.08 0 348.16 0 0 Z " fill="#0D0D0D" transform="translate(0,0)"/>
<path d="M0 0 C1.32 0 2.64 0 4 0 C4.16491943 0.54487061 4.32983887 1.08974121 4.49975586 1.65112305 C6.29892477 7.5904075 8.10848629 13.52646842 9.921875 19.46142578 C11.01659575 23.05446984 12.10196671 26.65026472 13.1875 30.24609375 C17.58721177 44.73264471 22.26483943 58.98543019 28 73 C28.36673828 73.90878906 28.73347656 74.81757813 29.11132812 75.75390625 C35.25388315 90.86604669 42.60757308 105.01812864 51 119 C51.62455078 120.04172363 51.62455078 120.04172363 52.26171875 121.10449219 C61.81653385 136.86341504 73.17290629 150.81233855 86 164 C86.75152344 164.79148437 87.50304687 165.58296875 88.27734375 166.3984375 C114.13756387 193.15768368 149.51205234 211.35284224 184 224 C185.04043457 224.3825293 186.08086914 224.76505859 187.15283203 225.15917969 C202.87318847 230.85140939 218.8083658 235.16651317 235.04418945 239.08227539 C235.79349731 239.26311676 236.54280518 239.44395813 237.31481934 239.63027954 C238.71611259 239.96686932 240.11808703 240.30064181 241.52087402 240.63095093 C245.42516933 241.5627564 249.21105825 242.67560676 253 244 C253 245.32 253 246.64 253 248 C251.82421387 248.28085449 250.64842773 248.56170898 249.43701172 248.85107422 C196.20393315 261.62073168 145.12048185 277.92162028 102 313 C101.43861328 313.45310547 100.87722656 313.90621094 100.29882812 314.37304688 C46.84179075 357.81806387 21.03354562 429.08095866 5 494 C3.68 494 2.36 494 1 494 C0.72438232 493.07703125 0.44876465 492.1540625 0.16479492 491.203125 C-17.3032731 432.83689115 -36.31785936 372.53506946 -80 328 C-80.85207031 327.10925781 -81.70414063 326.21851563 -82.58203125 325.30078125 C-126.02566153 280.62567799 -187.23231373 262.22730402 -246 248 C-246.33 246.68 -246.66 245.36 -247 244 C-246.00709961 243.75991211 -245.01419922 243.51982422 -243.99121094 243.27246094 C-185.58055368 229.06714878 -129.13026193 209.52212527 -85 167 C-84.38833984 166.41557129 -83.77667969 165.83114258 -83.14648438 165.22900391 C-74.79979888 157.22121601 -67.12679367 149.00600446 -60.25439453 139.69433594 C-59.04065888 138.05491876 -57.80204347 136.43724712 -56.55859375 134.8203125 C-28.38484375 97.51937656 -14.31425436 51.45894749 -2.35620117 6.89624023 C-1.09042503 2.18085006 -1.09042503 2.18085006 0 0 Z " fill="#FBFBFB" transform="translate(509,261)"/>
<path d="M0 0 C1.32 0.33 2.64 0.66 4 1 C3.01 1.33 2.02 1.66 1 2 C0.67 1.34 0.34 0.68 0 0 Z M-2 1 C-1.34 1 -0.68 1 0 1 C0 1.66 0 2.32 0 3 C-0.99 2.67 -1.98 2.34 -3 2 C-2.67 1.67 -2.34 1.34 -2 1 Z M-3 3 C-4.07401108 5.91517292 -4.77810176 7.77810176 -7 10 C-8.32 9.01 -9.64 8.02 -11 7 C-5.25 3 -5.25 3 -3 3 Z M-13 8 C-12.34 8.33 -11.68 8.66 -11 9 C-11.33 9.99 -11.66 10.98 -12 12 C-12.66 11.67 -13.32 11.34 -14 11 C-13.67 10.01 -13.34 9.02 -13 8 Z " fill="#F0F0F0" transform="translate(394,453)"/>
<path d="M0 0 C0.33 0.66 0.66 1.32 1 2 C3.32156597 2.40729228 5.6568787 2.74438677 8 3 C8.33 3.99 8.66 4.98 9 6 C7.26969709 5.71515154 5.54079286 5.42180062 3.8125 5.125 C2.84957031 4.96257813 1.88664062 4.80015625 0.89453125 4.6328125 C-1.91032604 4.01960483 -4.37224747 3.14333657 -7 2 C-6.401875 1.855625 -5.80375 1.71125 -5.1875 1.5625 C-3.43849596 1.1127561 -1.71322977 0.57107659 0 0 Z " fill="#EEEEEE" transform="translate(281,509)"/>
<path d="M0 0 C1.32 0 2.64 0 4 0 C4 0.66 4 1.32 4 2 C7.465 1.505 7.465 1.505 11 1 C11 1.66 11 2.32 11 3 C11.99 3.33 12.98 3.66 14 4 C9.89517207 5.13314263 7.24049263 4.78328091 3.1875 3.5625 C1.72376953 3.13130859 1.72376953 3.13130859 0.23046875 2.69140625 C-0.50558594 2.46324219 -1.24164063 2.23507812 -2 2 C-1.34 1.34 -0.68 0.68 0 0 Z " fill="#E7E7E7" transform="translate(297,515)"/>
<path d="M0 0 C3.42353587 1.21480305 5.01180815 3.01771223 7 6 C6.34 6.66 5.68 7.32 5 8 C3.82780457 7.21654285 2.66236332 6.42297164 1.5 5.625 C0.8503125 5.18414063 0.200625 4.74328125 -0.46875 4.2890625 C-0.9740625 3.86367188 -1.479375 3.43828125 -2 3 C-2 2.34 -2 1.68 -2 1 C-1.34 0.67 -0.68 0.34 0 0 Z " fill="#EDEDED" transform="translate(390,553)"/>
<path d="M0 0 C-1.375 1.5 -1.375 1.5 -3 3 C-3.66 3 -4.32 3 -5 3 C-5.33 3.66 -5.66 4.32 -6 5 C-7.65 4.67 -9.3 4.34 -11 4 C-11 3.34 -11 2.68 -11 2 C-9.54494642 1.47007308 -8.08581873 0.9513211 -6.625 0.4375 C-5.81289063 0.14746094 -5.00078125 -0.14257812 -4.1640625 -0.44140625 C-2 -1 -2 -1 0 0 Z " fill="#E7E7E7" transform="translate(322,490)"/>
<path d="M0 0 C0.33 0.99 0.66 1.98 1 3 C-1.39509338 5.89932357 -3.31245243 6.50168276 -7 7 C-7 6.01 -7 5.02 -7 4 C-4.69 2.68 -2.38 1.36 0 0 Z " fill="#EFEFEF" transform="translate(376,464)"/>
<path d="M0 0 C0 3.57996647 -0.92545363 4.23393817 -3 7 C-3 7.99 -3 8.98 -3 10 C-4.65 10.33 -6.3 10.66 -8 11 C-5.9785845 6.42521756 -3.68006822 3.38168431 0 0 Z " fill="#F3F3F3" transform="translate(426,426)"/>
<path d="M0 0 C2.96175123 0.61277612 4.38058783 1.25372522 7 3 C7 3.99 7 4.98 7 6 C6.01 6.33 5.02 6.66 4 7 C2.02 3.535 2.02 3.535 0 0 Z " fill="#EDEDED" transform="translate(448,610)"/>
<path d="M0 0 C0.99 0.33 1.98 0.66 3 1 C2.690625 1.598125 2.38125 2.19625 2.0625 2.8125 C0.89790296 5.08956772 0.89790296 5.08956772 0 8 C-2.0625 8.6875 -2.0625 8.6875 -4 9 C-2.80100302 5.9168649 -1.52299523 2.93720508 0 0 Z " fill="#141414" transform="translate(560,633)"/>
<path d="M0 0 C-0.61875 0.0825 -1.2375 0.165 -1.875 0.25 C-4.17972859 0.79394438 -4.17972859 0.79394438 -5.0625 3 C-5.5265625 3.99 -5.5265625 3.99 -6 5 C-6.99 5.33 -7.98 5.66 -9 6 C-9 4.35 -9 2.7 -9 1 C-2.25 -1.125 -2.25 -1.125 0 0 Z " fill="#EBEBEB" transform="translate(299,497)"/>
<path d="M0 0 C0.33 0 0.66 0 1 0 C1.02712066 1.43739513 1.04645067 2.87493863 1.0625 4.3125 C1.07410156 5.11300781 1.08570313 5.91351562 1.09765625 6.73828125 C1 9 1 9 0 12 C-0.99 12.33 -1.98 12.66 -3 13 C-2.01 8.71 -1.02 4.42 0 0 Z " fill="#181818" transform="translate(519,733)"/>
<path d="M0 0 C0.99 0.33 1.98 0.66 3 1 C4.1875 4.0625 4.1875 4.0625 5 7 C4.01 7.66 3.02 8.32 2 9 C1.34 6.03 0.68 3.06 0 0 Z " fill="#EBEBEB" transform="translate(495,704)"/>
<path d="M0 0 C2.475 0.99 2.475 0.99 5 2 C5 2.66 5 3.32 5 4 C5.66 4 6.32 4 7 4 C6.67 4.99 6.34 5.98 6 7 C3.69 5.35 1.38 3.7 -1 2 C-0.67 1.34 -0.34 0.68 0 0 Z " fill="#EDEDED" transform="translate(399,561)"/>
<path d="M0 0 C1.125 1.75 1.125 1.75 2 4 C1.125 6.25 1.125 6.25 0 8 C-0.66 8 -1.32 8 -2 8 C-2.33 7.01 -2.66 6.02 -3 5 C-1.5625 2.3125 -1.5625 2.3125 0 0 Z " fill="#F5F5F5" transform="translate(515,740)"/>
<path d="M0 0 C1.65 0.33 3.3 0.66 5 1 C5 1.66 5 2.32 5 3 C5.99 3.33 6.98 3.66 8 4 C7.01 4.495 7.01 4.495 6 5 C3.64018187 4.06421005 1.30368736 3.06652192 -1 2 C-0.67 1.34 -0.34 0.68 0 0 Z " fill="#EEEEEE" transform="translate(347,532)"/>
<path d="M0 0 C2 1 2 1 4 4 C2.02 4.33 0.04 4.66 -2 5 C-2.33 3.68 -2.66 2.36 -3 1 C-2.01 0.67 -1.02 0.34 0 0 Z " fill="#DDDDDD" transform="translate(265,504)"/>
<path d="M0 0 C0.66 0 1.32 0 2 0 C2.66 2.97 3.32 5.94 4 9 C3.01 8.67 2.02 8.34 1 8 C0.67 5.36 0.34 2.72 0 0 Z " fill="#181818" transform="translate(506,745)"/>
<path d="M0 0 C0.33 0.66 0.66 1.32 1 2 C0.34 2 -0.32 2 -1 2 C-1.66 3.32 -2.32 4.64 -3 6 C-3.99 5.67 -4.98 5.34 -6 5 C-6 4.34 -6 3.68 -6 3 C-4.02 2.01 -2.04 1.02 0 0 Z " fill="#171717" transform="translate(655,544)"/>
<path d="M0 0 C0.99 0.33 1.98 0.66 3 1 C1.25 3.0625 1.25 3.0625 -1 5 C-3.25 4.75 -3.25 4.75 -5 4 C-2.6875 1.9375 -2.6875 1.9375 0 0 Z " fill="#EBEBEB" transform="translate(341,481)"/>
<path d="M0 0 C0.66 0.33 1.32 0.66 2 1 C1.01 2.98 0.02 4.96 -1 7 C-1.99 7 -2.98 7 -4 7 C-3.6875 4.625 -3.6875 4.625 -3 2 C-2.01 1.34 -1.02 0.68 0 0 Z " fill="#131313" transform="translate(472,361)"/>
<path d="M0 0 C0 0.66 0 1.32 0 2 C-1.98 2.33 -3.96 2.66 -6 3 C-6.33 2.01 -6.66 1.02 -7 0 C-2.25 -1.125 -2.25 -1.125 0 0 Z " fill="#E7E7E7" transform="translate(288,500)"/>
</svg>
